# xmcd CD database file
# Generated: Áù  7ÔÂ 19 15:25:00 2003 by KSCD
# 
# Track frame offsets:
#       150
#       12352
#       29697
#       46645
#       60255
#       74192
#       89940
#       105640
#       122907
#       144407
#       163025
#       175515
#       189855
#       204132
#       216112
#
# Disc length: 3066 seconds
#
# Revision: 2
# Processed by: cddbd v1.4PL0 Copyright (c) Steve Scherf et al.
# Submitted via: Kscd 1.3.3
#
DISCID=d00bf80f
DTITLE=Kenny Roggers - Always And Forever
DYEAR=1900
DGENRE=
TTITLE0=It Had To Be You
TTITLE1=
TTITLE2=
TTITLE3=
TTITLE4=
TTITLE5=
TTITLE6=
TTITLE7=
TTITLE8=
TTITLE9=
TTITLE10=
TTITLE11=
TTITLE12=
TTITLE13=
TTITLE14=
EXTD=
EXTT0=
EXTT1=
EXTT2=
EXTT3=
EXTT4=
EXTT5=
EXTT6=
EXTT7=
EXTT8=
EXTT9=
EXTT10=
EXTT11=
EXTT12=
EXTT13=
EXTT14=
PLAYORDER=
